<svg width="635" height="392" viewBox="0 0 635 392" fill="none" xmlns="http://www.w3.org/2000/svg">
<path d="M0.200001 5.99997H137L157.4 264L282.2 5.99997H341.6L164 387H22.4L0.200001 5.99997ZM512.759 116.4C513.959 110.4 514.559 102.2 514.559 91.8C514.559 85.8 514.159 80 513.359 74.4C512.559 68.4 511.159 63.2 509.159 58.8C507.159 54 504.159 50.4 500.159 48C496.159 45.2 490.959 43.8 484.559 43.8C477.359 43.8 470.759 45.4 464.759 48.6C458.759 51.8 453.359 56 448.559 61.2C444.159 66 440.559 71.8 437.759 78.6C435.359 85 434.159 91.8 434.159 99C434.159 109.4 436.759 117.4 441.959 123C447.559 128.6 454.759 133.2 463.559 136.8C472.359 140.4 482.359 143.4 493.559 145.8C504.759 148.2 516.359 151 528.359 154.2C538.359 157 548.359 160.6 558.359 165C568.359 169.4 577.159 175.4 584.759 183C592.759 190.2 599.159 199.8 603.959 211.8C608.759 223.4 611.159 238 611.159 255.6C611.159 280.8 606.159 302 596.159 319.2C586.159 336.4 572.359 350.4 554.759 361.2C537.159 372 516.159 379.8 491.759 384.6C467.759 389.4 441.559 391.8 413.159 391.8C384.359 391.8 360.759 390 342.359 386.4C324.359 382.4 310.159 378.2 299.759 373.8C287.359 368.6 278.159 362.6 272.159 355.8L292.559 273.6H398.159C397.759 277.2 397.359 282.2 396.959 288.6C396.559 294.6 396.359 299.4 396.359 303C396.359 307.8 396.959 312.8 398.159 318C399.359 323.2 401.159 328 403.559 332.4C406.359 336.8 410.159 340.4 414.959 343.2C419.759 346 425.759 347.4 432.959 347.4C440.959 347.4 447.959 345.6 453.959 342C460.359 338.4 465.559 334 469.559 328.8C473.959 323.2 477.159 317.2 479.159 310.8C481.559 304 482.759 297.4 482.759 291C482.759 282.2 480.559 274.8 476.159 268.8C472.159 262.8 466.559 257.8 459.359 253.8C452.159 249.4 443.759 245.8 434.159 243C424.959 239.8 415.359 236.6 405.359 233.4C395.759 230.6 385.559 227.2 374.759 223.2C364.359 219.2 354.759 213.6 345.959 206.4C337.159 199.2 329.759 190.2 323.759 179.4C318.159 168.2 315.359 154 315.359 136.8C315.359 111.2 321.759 89.8 334.559 72.6C347.759 55 364.159 40.8 383.759 30C403.759 19.2 425.559 11.6 449.159 7.19999C472.759 2.39998 495.159 -2.43187e-05 516.359 -2.43187e-05C544.359 -2.43187e-05 568.359 3.39998 588.359 10.2C608.759 16.6 624.159 24.2 634.559 33L612.359 116.4H512.759Z" fill="black"/>
</svg>
